<svg id="Layer_1" data-name="Layer 1" xmlns="http://www.w3.org/2000/svg" viewBox="0 0 1119.47 508.5"><defs><style>.cls-1{fill:#fff;}.cls-2{fill:#5b5b5b;}</style></defs><title>ROCK 4 INSTAGRAM</title><path class="cls-1" d="M572.73,571.15C479.16,566,401.38,560.06,325,544.24c-33.48-6.94-66.16-17.41-99.76-23.66-27.48-5.1-55.82-6-83.71-9.34-25.68-3.08-43-19-56.92-37.15-12.31-16.06-15.72-35-13.39-55.45,3-26-1.44-49.14-28-66.76-24.32-16.09-41.6-59.2-15.85-88.39,22.75-25.78,28.88-57,34.78-88.13,4.9-25.78,21.63-43.75,41.26-59.31,39.49-31.31,86.24-40,137.08-35.37,38.62,3.55,77.3.61,114.94-7.62C419.67,59,483.57,60.52,548.43,69.7c40.53,5.73,81.93,6.23,123,8.7,21.24,1.27,42.61,3,63.81,2.22,30.31-1.19,60.47-5.46,90.77-6.78,41.58-1.8,83.34-4,124.82-2.11,18.55.85,36.86,10.65,54.81,17.48,19.23,7.32,38.1,15.53,56.76,24.06,32,14.65,48.86,41.41,59.59,71.17,12.49,34.65,16.87,70.76,5.34,106.46-13,40.27-17.42,81.34-18,123.05-.26,18.06-8.14,33.1-18.58,48.16-28.59,41.27-71.71,58.58-120.41,69.18-34.57,7.53-69.09,6-103.91,4.87-57.21-1.82-113.64,1.35-169.81,14.53C651.08,561.37,604,566.15,572.73,571.15ZM49.66,259.89c-25.23,22.63-28.36,45.49-7.5,70.21,22,26.11,52.82,41.44,83.77,56.45,11.9,5.77,22.67,13.55,34.18,20.06,15.71,8.89,30.57,20.81,47.65,25.5,45.14,12.37,91.29,21.48,137,32.07,8.06,1.87,15.89,4.62,23.83,7l-1.35,5.68-69.49-7.45c13.79,9,13.79,9,8.2,17.52l-37.45-9.15,11.26,9.73c-.73,2-1.47,4.07-2.2,6.11-64.75-14.39-132.95-17.6-191.14-58,2.07,9.69,4.56,21.21,11.07,23.76,27,10.57,54,22.2,84.5,21.65,3.58-.06,7.22,3.45,10.84,5.3-4,1.71-7.78,4.54-11.88,4.93-23.69,2.25-46.77.18-68.35-10.8,11.88,10.93,25.11,18,42.08,19.5,25.69,2.28,51.48,4.88,76.78,9.45,25.72,4.65,50.65,13.17,76.39,17.67,52.11,9.12,104.38,17.74,156.88,24.46,31.83,4.08,64.48,7.43,96.32,5.33,42.76-2.82,85.6-9.14,127.51-17.75,58-11.93,116.27-18.25,175.47-15.51,43.14,2,86.05,4,127.69-9.77,11.58-3.84,23-7.95,34.57-11.93-.34-1-.69-2-1-3.05-7,1.08-14.18,1.73-21.06,3.38-6.68,1.61-13.81,6.53-16.87-6.4,8.27-2.25,16.19-5.09,24.4-6.47,13.48-2.27,29.32-.19,40.18-6.22,12.8-7.11,21.36-20.89,33.43-33.53-16.69,6.61-29.41,14.24-43.15,16.58-41,7-82.28,12-123.52,17.28-3.51.46-7.52-2.41-11.29-3.74,3-2.65,5.58-7.15,8.91-7.65,28.14-4.27,56.29-9.59,84.65-11.11,36.52-2,68.22-11.71,92.67-37.94,2.05-2.21,2-6.17,3.17-10.45-12,2.78-20,19.46-32.91,5.69l35.28-23.48-23.66,3.61-1.53-4.1c4.14-2.73,8-7.16,12.49-7.84,11.52-1.74,11.66-8.92,13-17.23,3.55-22.58,6.68-45.37,12.69-67.44,9.13-33.55,12-66.58,0-99.86L1096.79,199l11.75-12.39c-7.22-.73-12.77,1.55-18.57,2.68-2.39.46-5.33-1.57-8-2.46,1-2.16,1.44-5.15,3.22-6.32,4.95-3.28,10.46-5.81,15.75-8.63-.48-1.54-1-3.08-1.43-4.62l-38,11.4q-1.34-2.46-2.65-4.94l31.46-18.45-6.68-8.3-17.47,2.45c3.08-6.37,4.77-9.89,6.57-13.6-36-23.75-75.56-42.06-116.47-49.42s-84.68-1.79-127.1,0c-36.1,1.49-72,6.14-108.1,8.34-15.77,1-31.75-.24-47.58-1.26Q613.2,89.55,553,84.86c-39.25-3-78.57-9.74-117.68-8.69-36.83,1-73.26,11.38-110.16,15-31.39,3.11-63.33,4.6-94.8,3-37.12-1.86-71.9,3-102.61,22.37-28.35,17.86-51.66,40.05-54.42,75-.78,9.85-8.32,20.45,7.75,25.65.63.2.08,3.6.08,4.24l-15.86,3.92c3.25,4.24,5.93,9,9.88,12.59,4.48,4,10.08,7,15.2,10.43-13.28,13.3-21.89-11.27-36.21-2.61l57.19,33.32C83.88,288.41,70.64,263.41,49.66,259.89ZM180.1,456.06,90.69,408.22l-4.64,4.37c2.18,3.39,3.53,7.9,6.71,9.94,6.86,4.42,15.43,6.63,21.91,11.4C133.77,448,155.88,454.28,180.1,456.06Zm-26.76-31.79c-15.51-23.63-44.69-26.92-67.32-42.48-1.09,10.15,1.29,15.3,11.06,15.65,3,.1,6,1.64,8.8,3C121.75,408.31,137.53,416.31,153.34,424.27Z" transform="translate(-14.53 -62.65)"/><path class="cls-2" d="M48.74,259.89c21,3.52,34.21,28.52,61.7,19.28L53.28,245.85c14.31-8.66,22.92,15.91,36.19,2.61C84.35,245,78.75,242.07,74.27,238c-3.94-3.56-6.63-8.35-9.87-12.59l15.85-3.92c0-.64.55-4-.08-4.24-16.06-5.2-8.52-15.8-7.74-25.65,2.76-35,26.05-57.17,54.39-75,30.7-19.35,65.48-24.23,102.58-22.37,31.46,1.57,63.38.08,94.76-3,36.89-3.65,73.31-14,110.13-15,39.09-1,78.4,5.66,117.64,8.69q60.17,4.64,120.38,8.62c15.81,1,31.79,2.22,47.55,1.26,36.07-2.2,72-6.85,108.07-8.34,42.41-1.75,86.19-7.31,127.05,0s80.43,25.67,116.44,49.42c-1.8,3.71-3.5,7.23-6.58,13.6l17.47-2.45,6.68,8.3-31.46,18.45,2.65,4.94,38-11.4c.47,1.54,1,3.08,1.42,4.62-5.28,2.82-10.8,5.35-15.74,8.63-1.78,1.17-2.18,4.16-3.21,6.32,2.68.89,5.62,2.92,8,2.46,5.8-1.13,11.34-3.41,18.56-2.68L1095.51,199l15.32,2.87c12,33.28,9.1,66.31,0,99.86-6,22.07-9.14,44.86-12.69,67.44-1.3,8.31-1.44,15.49-13,17.23-4.5.68-8.34,5.11-12.49,7.84l1.53,4.1,23.65-3.61-35.27,23.48c13,13.77,20.89-2.91,32.91-5.69-1.22,4.28-1.12,8.24-3.18,10.45-24.44,26.23-56.12,36-92.63,37.94-28.35,1.52-56.49,6.84-84.62,11.11-3.33.5-6,5-8.91,7.65,3.77,1.33,7.77,4.2,11.29,3.74,41.23-5.32,82.54-10.32,123.47-17.28,13.74-2.34,26.45-10,43.14-16.58-12.06,12.64-20.62,26.42-33.42,33.53-10.85,6-26.69,3.95-40.17,6.22-8.2,1.38-16.12,4.22-24.38,6.47,3,12.93,10.18,8,16.86,6.4,6.87-1.65,14-2.3,21-3.38.35,1,.7,2,1,3.05-11.52,4-23,8.09-34.56,11.93-41.63,13.78-84.52,11.77-127.65,9.77-59.17-2.74-117.4,3.58-175.4,15.51C645.52,547.7,602.7,554,560,556.84c-31.83,2.1-64.46-1.25-96.28-5.33-52.49-6.72-104.73-15.34-156.82-24.46-25.73-4.5-50.65-13-76.37-17.67-25.29-4.57-51.07-7.17-76.75-9.45-17-1.51-30.2-8.57-42.07-19.5,21.57,11,44.65,13.05,68.33,10.8,4.09-.39,7.92-3.22,11.87-4.93-3.61-1.85-7.26-5.36-10.83-5.3-30.47.55-57.53-11.08-84.47-21.65-6.51-2.55-9-14.07-11.07-23.76,58.17,40.39,126.35,43.6,191.07,58l2.21-6.11-11.26-9.73,37.43,9.15c5.59-8.48,5.59-8.48-8.19-17.52l69.46,7.45,1.35-5.68c-7.94-2.34-15.76-5.09-23.82-7-45.69-10.59-91.83-19.7-137-32.07-17.08-4.69-31.93-16.61-47.63-25.5-11.51-6.51-22.27-14.29-34.17-20.06-30.94-15-61.71-30.34-83.74-56.45C20.4,305.38,23.52,282.52,48.74,259.89ZM657.31,505.38c5.51-.3,8.6.26,10.86-.76,4.27-1.94,8.08-4.8,12.08-7.27-4-1.82-7.72-4.46-11.89-5.27-7.9-1.52-16.09-1.7-24.06-2.94-24.38-3.8-48.44-11.54-73.55-5.29-3.66.91-6.71,4-10,6.1,3.87,1.6,7.63,4.26,11.61,4.59,12.4,1,25,.27,37.29,1.94C626.52,498.78,643.19,502.68,657.31,505.38ZM399.14,90.3c-5.05,0-7.68-.7-9.45.16-3.16,1.53-5.81,4-8.67,6.08,3,1.95,5.88,5.36,9,5.54,6.64.37,13.42-.75,20.09-1.58,12.07-1.52,24.15-3,36.14-5,5-.83,9.72-2.88,14.57-4.37-5.1-2.41-10-5.42-15.36-7-3.15-.92-7.08.35-10.63.86C422,86.85,409.2,88.8,399.14,90.3ZM612.36,517.78l-7.14,11.7c4.9.21,12.52,2.33,14.17.27a37.11,37.11,0,0,0,7.76-19c.15-1.63-10.21-5-16-6-4.63-.81-9.88.25-14.56,1.47-2.48.65-4.33,3.4-6.47,5.21,2.57,1.87,4.88,4.74,7.75,5.38C602.76,517.87,608,517.55,612.36,517.78ZM852.21,98.06l1,4.72c7.85-.42,15.73-.64,23.54-1.43,1.71-.17,4.28-2.2,4.48-3.63s-1.68-4.57-3.05-4.79C868.64,91.4,859.3,91.26,852.21,98.06Z" transform="translate(-14.53 -62.65)"/><path class="cls-2" d="M169.26,456.06c-22.64-1.78-43.29-8.05-61.15-22.13-6-4.77-14.06-7-20.47-11.4-3-2-4.24-6.55-6.27-9.94l4.33-4.37Q127.49,432.13,169.26,456.06Z" transform="translate(-14.53 -62.65)"/><path class="cls-2" d="M144.25,424.27c-14.77-8-29.52-16-44.35-23.83-2.57-1.36-5.44-2.9-8.23-3-9.13-.35-11.35-5.5-10.33-15.65C102.49,397.35,129.75,400.64,144.25,424.27Z" transform="translate(-14.53 -62.65)"/><path class="cls-1" d="M798.49,98.06c6.62-6.8,15.35-6.66,24.23-5.13,1.29.22,3.06,3.28,2.86,4.79s-2.59,3.46-4.19,3.63c-7.3.79-14.66,1-22,1.43Z" transform="translate(-14.53 -62.65)"/></svg>